<svg width="62" height="78" xmlns="http://www.w3.org/2000/svg"><path d="M19.69 3.632a1.755 1.755 0 0 1 1.113.434 1.79 1.79 0 0 1 .573 1.653 1.766 1.766 0 0 1-1.133 1.333A25.956 25.956 0 0 0 3.5 31.354c0 7.54 3.199 14.31 8.303 19.059.21.196.37.444.467.716.092.273.12.565.075.851l-2.23 14.34 27.4 7.179 1.314-10.107a1.747 1.747 0 0 1 1.407-1.502c.24-.048.488-.04.728.01l8.193 1.875 1.404-8.605a1.76 1.76 0 0 1 .597-1.057 1.737 1.737 0 0 1 1.14-.417h5.83L54.83 37.975a1.947 1.947 0 0 1-.037-.424l.302-9.035c-1.033-9.538-7.215-17.522-15.696-21.105a1.707 1.707 0 0 1-.577-.383 1.808 1.808 0 0 1-.387-.575 1.776 1.776 0 0 1 .39-1.94 1.764 1.764 0 0 1 1.26-.502c.234.003.464.055.677.148 9.676 4.089 16.708 13.217 17.841 24.105.007.08.01.162.007.242l-.302 8.948 3.7 17.64a1.763 1.763 0 0 1-1.716 2.129h-6.504l-1.463 8.98A1.758 1.758 0 0 1 50.2 67.64l-8.134-1.86-1.321 10.169a1.76 1.76 0 0 1-1.445 1.508 1.778 1.778 0 0 1-.738-.03L7.695 69.336a1.78 1.78 0 0 1-1.023-.74 1.754 1.754 0 0 1-.264-1.24l2.337-15.009C3.353 46.998 0 39.562 0 31.36 0 18.753 7.901 7.961 19.019 3.76a1.74 1.74 0 0 1 .686-.121l-.014-.006zM34.55 0c.23 0 .474.048.688.137.213.09.389.224.55.385.163.161.297.336.386.55.09.212.138.456.138.686V27.66c3.612 2.019 6.06 5.871 6.06 10.273 0 3.715-1.725 7.042-4.435 9.202l4.105 7.114c.12.2.19.402.22.632.031.23.031.491-.027.714a1.694 1.694 0 0 1-.303.604c-.141.186-.324.35-.524.467-.203.117-.43.19-.66.22-.231.031-.466.01-.69-.055a1.8 1.8 0 0 1-.633-.302 1.74 1.74 0 0 1-.44-.522l-4.105-7.086a11.682 11.682 0 0 1-4.298.796c-6.504 0-11.817-5.298-11.817-11.783 0-4.402 2.448-8.254 6.06-10.274V1.758c0-.23.049-.473.138-.686.09-.213.224-.388.386-.55.162-.161.337-.295.55-.384.214-.09.459-.138.69-.138h7.96zm-3.968 29.692c-4.6 0-8.291 3.664-8.291 8.24a8.253 8.253 0 0 0 8.291 8.268c4.59 0 8.264-3.68 8.264-8.268 0-4.576-3.674-8.24-8.264-8.24z" fill="#E6E8EB" fill-rule="evenodd"/></svg>